# AST/ASF file generated using VICON BodyLanguage
# -----------------------------------------------
:version 1.10
:name VICON
:units
  mass 1.0
  length 0.45
  angle deg
:documentation
   .ast/.asf automatically generated from VICON data using
   VICON BodyBuilder and BodyLanguage model FoxedUp or BRILLIANT.MOD
:root
   order TX TY TZ RX RY RZ
   axis XYZ
   position 0 0 0  
   orientation 0 -0 0 
:bonedata
  begin
     id 1 
     name lhipjoint
     direction 0.515797 -0.759363 0.396637 
     length 2.47888 
     axis 0 -0 0  XYZ
  end
  begin
     id 2 
     name lfemur
     direction 0.34202 -0.939693 0  
     length 6.81885  
     axis 0 -0 20  XYZ
    dof rx ry rz
    limits (-160.0 20.0)
           (-70.0 70.0)
           (-60.0 70.0)
  end
  begin
     id 3 
     name ltibia
     direction 0.342037 -0.939687 0   
     length 7.89258   
     axis 0 -0 20   XYZ
    dof rx
    limits (-10.0 170.0)
  end
  begin
     id 4 
     name lfoot
     direction 0.173497 -0.476678 0.861787   
     length 2.51543   
     axis -90 -1.13533e-015 20   XYZ
    dof rx rz
    limits (-45.0 90.0)
           (-70.0 20.0)
  end
  begin
     id 5 
     name ltoes
     direction 1.53564e-011 -4.21897e-011 1   
     length 1.21388   
     axis -90 -1.13533e-015 20   XYZ
    dof rx
    limits (-90.0 20.0)
  end
  begin
     id 6 
     name rhipjoint
     direction -0.489454 -0.772941 0.403729   
     length 2.43534  
     axis 0 -0 0  XYZ 
  end
  begin
     id 7 
     name rfemur
     direction -0.34202 -0.939693 0   
     length 7.10357   
     axis 0 -0 -20   XYZ
    dof rx ry rz
    limits (-160.0 20.0)
           (-70.0 70.0)
           (-70.0 60.0)
  end
  begin
     id 8 
     name rtibia
     direction -0.34202 -0.939693 0   
     length 9.16127   
     axis 0 -0 -20   XYZ
    dof rx
    limits (-10.0 170.0)
 end
 begin
     id 9 
     name rfoot
     direction -0.270974 -0.748671 0.605033   
     length 1.74894  
     axis -90 1.13533e-015 -20   XYZ
    dof rx rz
    limits (-45.0 90.0)
           (-20.0 70.0)
  end
  begin
     id 10 
     name rtoes
     direction -1.53557e-011 -4.21759e-011 1   
     length 0.787585   
     axis -90 1.13533e-015 -20   XYZ
    dof rx
    limits (-90.0 20.0)
  end
  begin
     id 11 
     name lowerback
     direction -0.0140249 0.999561 0.0260968   
     length 2.16963   
     axis 0 -0 0   XYZ
    dof rx ry rz
    limits (-20.0 45.0)
           (-30.0 30.0)
           (-30.0 30.0)
  end
  begin
     id 12 
     name upperback
     direction 0.00860018 0.999959 -0.002711   
     length 2.1726   
     axis 0 -0 0   XYZ
    dof rx ry rz
    limits (-20.0 45.0)
           (-30.0 30.0)
           (-30.0 30.0)
  end
  begin
     id 13 
     name thorax
     direction 0.015211 0.999782 -0.0143191   
     length 2.17061   
     axis 0 -0 0   XYZ
    dof rx ry rz
    limits (-20.0 45.0)
           (-30.0 30.0)
           (-30.0 30.0)
  end
  begin
     id 14 
     name lowerneck
     direction -0.0140143 0.999447 0.030145   
     length 2.26749   
     axis 0 -0 0   XYZ
    dof rx ry rz
    limits (-20.0 45.0)
           (-30.0 30.0)
           (-30.0 30.0)
  end
  begin
     id 15 
     name upperneck
     direction 0.118062 0.961438 -0.248392   
     length 2.22728   
     axis 0 -0 0   XYZ
    dof rx ry rz
    limits (-20.0 45.0)
           (-30.0 30.0)
           (-30.0 30.0)
  end
  begin
     id 16
     name head
     direction 0.0431885 0.9954 -0.085514  
     length 2.28786  
     axis 0 -0 0   XYZ
    dof rx ry rz
    limits (-20.0 45.0)
           (-30.0 30.0)
           (-30.0 30.0)
  end
  begin
     id 17 
     name lclavicle
     direction 0.912126 0.409548 0.0172323  
     length 4.31571  
     axis 0 -0 0   XYZ
    dof ry rz
    limits (-20.0 10.0)
           (0.0 20.0)
  end
  begin
     id 18 
     name lhumerus
     direction 1 -4.48977e-011 1.93091e-027   
     length 5.13658   
     axis 180 -30 -90   XYZ
    dof rx ry rz
    limits (-60.0 90.0)
           (-90.0 90.0)
           (-90.0 90.0)
  end
  begin
     id 19
     name lradius
     direction 1 -4.48916e-011 6.84018e-027   
     length 3.22473   
     axis 180 -30 -90   XYZ
    dof rx
    limits (-10.0 170.0)
  end
  begin
     id 20
     name lwrist
     direction 1 -4.48987e-011 7.01981e-027   
     length 1.61236   
     axis -4.37994e-015 90 90   XYZ
    dof ry
    limits (-180.0 0.0)
 end
  begin
     id 21 
     name lhand
     direction 1 -4.49037e-011 1.40335e-026   
     length 0.936406   
     axis -8.96029e-015 90 90   XYZ
    dof rx rz
    limits (-90.0 90.0)
           (-45.0 45.0)
  end
  begin
     id 22 
     name lfingers
     direction 1 -4.48886e-011 2.8104e-026   
     length 0.754955   
     axis -1.79203e-014 90 90   XYZ
    dof rx
    limits (0.0 90.0)
  end
  begin
     id 23
     name lthumb
     direction 0.707107 -6.34937e-011 0.707107   
     length 1.08397   
     axis -90 45 -4.48555e-014   XYZ
    dof rx rz
    limits (-45.0 45.0)
           (-45.0 45.0)
  end
  begin
     id 24 
     name rclavicle
     direction -0.947962 0.317997 0.0156638   
     length 4.86918  
     axis 0 -0 0   XYZ 
    dof ry rz
    limits (-10.0 20.0)
           (-20.0 0.0)
  end
  begin
     id 25 
     name rhumerus
     direction -1 -4.48951e-011 2.80534e-018  
     length 5.60911   
     axis 180 30 90   XYZ
    dof rx ry rz
    limits (-90.0 60.0)
           (-90.0 90.0)
           (-90.0 90.0)
  end
  begin
     id 26 
     name rradius
     direction -1 -4.4898e-011 2.11315e-027   
     length 3.38704   
     axis 180 30 90   XYZ
    dof rx
    limits (-10.0 170.0)
  end
  begin
     id 27 
     name rwrist
     direction -1 -4.48933e-011 7.02314e-027   
     length 1.69352   
     axis -4.37994e-015 -90 -90   XYZ
    dof ry
    limits (-180.0 0.0)
  end
  begin
     id 28
     name rhand
     direction -1 -4.48937e-011 1.40458e-026   
     length 0.755878   
     axis -8.96029e-015 -90 -90   XYZ
    dof rx rz
    limits (-90.0 90.0)
           (-45.0 45.0)
  end
  begin
     id 29
     name rfingers
     direction -1 -4.4901e-011 2.80737e-026   
     length 0.609409   
     axis -1.79203e-014 -90 -90   XYZ
    dof rx
    limits (0.0 90.0)
  end
  begin
     id 30
     name rthumb
     direction -0.707107 -6.34968e-011 0.707107   
     length 0.874992   
     axis -90 -45 4.48555e-014   XYZ
    dof rx rz
    limits (-45.0 45.0)
           (-45.0 45.0)
  end
:hierarchy
  begin
    root lhipjoint rhipjoint lowerback
    lhipjoint lfemur
    lfemur ltibia
    ltibia lfoot
    lfoot ltoes
    rhipjoint rfemur
    rfemur rtibia
    rtibia rfoot
    rfoot rtoes
    lowerback upperback
    upperback thorax
    thorax lowerneck lclavicle rclavicle
    lowerneck upperneck
    upperneck head
    lclavicle lhumerus
    lhumerus lradius
    lradius lwrist
    lwrist lhand lthumb
    lhand lfingers
    rclavicle rhumerus
    rhumerus rradius
    rradius rwrist
    rwrist rhand rthumb
    rhand rfingers
  end

#!OML:ASF C:\ViconDB\ViconDB\414\Spring2016\041811\Spring2016.ASF
:FULLY-SPECIFIED
:DEGREES
93
root 8.51151 18.2134 3.11837 -177.676 -2.81754 -177.009
lowerback 5.23543 0.51794 -3.21997
upperback 1.55606 0.472076 1.20701
thorax -1.37059 0.207752 3.02209
lowerneck -9.50126 -4.54385 -10.1365
upperneck 10.828 -7.97743 18.5284
head 6.00442 -3.47381 6.95146
rclavicle 6.16232e-015 -4.77083e-015
rhumerus -43.2349 -25.945 -76.5095
rradius 36.7636
rwrist 39.7945
rhand -33.3495 -14.1977
rfingers 7.12502
rthumb -6.55161 -44.0763
lclavicle 6.16232e-015 -4.77083e-015
lhumerus -40.356 -11.6819 95.6243
lradius 35.6846
lwrist -24.7408
lhand -25.9056 14.5113
lfingers 7.12502
lthumb 0.636881 44.4901
rfemur -29.2708 -13.9492 20.1144
rtibia 43.4021
rfoot -163.705 5.54575
rtoes -6.90879
lfemur -1.90091 -10.1963 -16.7699
ltibia 22.1898
lfoot -27.6983 13.7063
ltoes -10.7813
94
root 8.50126 18.2095 3.04255 -177.557 -2.75778 -176.974
lowerback 5.16353 0.50317 -3.09251
upperback 1.55681 0.460693 1.0949
thorax -1.32704 0.201829 2.83537
lowerneck -9.57989 -4.50858 -9.82262
upperneck 10.8222 -8.00336 18.5809
head 6.01155 -3.4764 6.90901
rclavicle 8.10048e-015 4.37326e-015
rhumerus -43.5049 -25.8433 -76.765
rradius 36.6817
rwrist 39.8338
rhand -33.2308 -14.0348
rfingers 7.12502
rthumb -6.43702 -43.917
lclavicle 8.10048e-015 4.37326e-015
lhumerus -40.3855 -12.2096 95.5875
lradius 36.2978
lwrist -24.0167
lhand -25.9788 14.5653
lfingers 7.12502
lthumb 0.566227 44.5442
rfemur -29.3058 -13.6784 20.4471
rtibia 41.4061
rfoot -163.619 5.7919
rtoes -7.19488
lfemur -1.53481 -10.214 -16.805
ltibia 21.8173
lfoot -27.7927 13.8558
ltoes -10.8952
95
root 8.49534 18.2067 2.9623 -177.471 -2.79958 -176.939
lowerback 5.12379 0.410877 -3.11654
upperback 1.54942 0.33896 1.15591
thorax -1.30411 0.140865 2.9197
lowerneck -9.58549 -4.43963 -9.9359
upperneck 10.777 -7.91475 18.7397
head 5.99655 -3.43355 6.99171
rclavicle -6.95746e-016 -9.93923e-015
rhumerus -43.779 -25.7535 -76.6406
rradius 36.5457
rwrist 40.4166
rhand -33.0963 -13.8774
rfingers 7.12502
rthumb -6.30716 -43.7635
lclavicle -6.95746e-016 -9.93923e-015
lhumerus -40.3735 -12.2141 95.6953
lradius 36.8579
lwrist -23.3605
lhand -25.9332 14.5296
lfingers 7.12502
lthumb 0.610268 44.5085
rfemur -29.3484 -13.7375 20.8694
rtibia 39.4352
rfoot -163.298 5.88389
rtoes -7.80275
lfemur -1.07148 -10.304 -16.8208
ltibia 21.3189
lfoot -27.832 13.9824
ltoes -11.0211
96
root 8.48861 18.204 2.87916 -177.432 -2.83 -176.984
lowerback 5.12659 0.36239 -3.1548
upperback 1.55901 0.272011 1.16174
thorax -1.29104 0.106865 2.95147
lowerneck -9.60808 -4.40405 -9.9269
upperneck 10.7245 -7.87319 18.8109
head 5.98111 -3.4118 7.01738
rclavicle 5.46658e-016 -3.97569e-016
rhumerus -44.0776 -25.5732 -76.6406
rradius 36.4665
rwrist 40.5981
rhand -33.0284 -13.6128
rfingers 7.12502
rthumb -6.24166 -43.5008
lclavicle 5.46658e-016 -3.97569e-016
lhumerus -40.3219 -12.5184 95.8129
lradius 37.3993
lwrist -22.8443
lhand -25.99 14.5694
lfingers 7.12502
lthumb 0.555434 44.5485
rfemur -29.3869 -13.8941 21.207
rtibia 37.5414
rfoot -162.862 5.86857
rtoes -7.92493
lfemur -0.495361 -10.1755 -16.9092
ltibia 20.7101
lfoot -27.7601 13.953
ltoes -11.3108
97
root 8.48185 18.2041 2.78933 -177.349 -2.9303 -177.046
lowerback 4.9993 0.284615 -3.10382
upperback 1.59838 0.173893 1.08728
thorax -1.17188 0.0552156 2.85184
lowerneck -9.68952 -4.36076 -10.0658
upperneck 10.6487 -7.87093 19.2281
head 5.99705 -3.40368 7.18263
rclavicle 9.54166e-015 2.78299e-015
rhumerus -44.4556 -25.4923 -76.6502
rradius 36.1138
rwrist 42.0834
rhand -33.8092 -13.2719
rfingers 7.12502
rthumb -6.99539 -43.1363
lclavicle 9.54166e-015 2.78299e-015
lhumerus -40.1895 -12.9327 95.8093
lradius 37.893
lwrist -22.4219
lhand -25.9657 14.5806
lfingers 7.12502
lthumb 0.578855 44.5595
rfemur -29.3878 -14.0358 21.4289
rtibia 35.7327
rfoot -162.527 5.92644
rtoes -8.53713
lfemur 0.0448188 -9.72891 -16.9324
ltibia 20.0358
lfoot -27.5119 13.5898
ltoes -11.6407
98
root 8.47703 18.2035 2.69763 -177.255 -2.96957 -177.118
lowerback 4.88644 0.256292 -3.1772
upperback 1.64905 0.135561 1.13239
thorax -1.05418 0.0324671 2.94197
lowerneck -9.74551 -4.37801 -10.2148
upperneck 10.4465 -7.86005 19.4007
head 5.95781 -3.39783 7.26524
rclavicle -3.47873e-016 -6.36111e-015
rhumerus -44.6601 -25.3314 -76.5981
rradius 36.0132
rwrist 42.5314
rhand -33.748 -13.3428
rfingers 7.12502
rthumb -6.93635 -43.2092
lclavicle -3.47873e-016 -6.36111e-015
lhumerus -40.011 -13.3046 96.0199
lradius 38.4221
lwrist -21.9816
lhand -26.0736 14.7515
lfingers 7.12502
lthumb 0.474661 44.7307
rfemur -29.4725 -14.2307 21.6846
rtibia 34.0419
rfoot -161.985 6.10893
rtoes -8.49174
lfemur 0.641329 -9.43479 -16.9965
ltibia 19.2943
lfoot -27.3089 13.4246
ltoes -11.8609
99
root 8.47226 18.1957 2.60466 -177.178 -3.08654 -177.16
lowerback 4.73969 0.179579 -3.07189
upperback 1.65509 0.0435657 1.071
thorax -0.959198 -0.0143281 2.82419
lowerneck -9.71311 -4.3622 -10.0564
upperneck 10.4666 -7.85823 19.3141
head 5.94778 -3.39782 7.20786
rclavicle 9.54166e-015 -1.23246e-014
rhumerus -45.03 -25.1808 -76.6749
rradius 35.9807
rwrist 42.6275
rhand -33.4684 -13.0582
rfingers 7.12502
rthumb -6.66635 -42.9333
lclavicle 9.54166e-015 -1.23246e-014
lhumerus -39.9443 -13.7704 96.0716
lradius 38.9014
lwrist -21.8113
lhand -26.0785 14.7591
lfingers 7.12502
lthumb 0.46995 44.7383
rfemur -29.5685 -14.4477 21.9692
rtibia 32.4663
rfoot -161.626 6.38851
rtoes -8.3262
lfemur 1.26496 -9.16847 -17.0047
ltibia 18.5105
lfoot -27.0664 13.2208
ltoes -12.0456
100
root 8.4675 18.189 2.50667 -177.119 -3.06806 -177.223
lowerback 4.64685 0.15666 -3.04002
upperback 1.67326 0.0173367 1.0634
thorax -0.886841 -0.0288469 2.79958
lowerneck -9.69341 -4.33163 -10.1274
upperneck 10.3092 -7.80397 19.4489
head 5.8967 -3.37458 7.2698
rclavicle 2.13694e-015 -1.19271e-015
rhumerus -45.2845 -24.7619 -76.8075
rradius 35.9021
rwrist 42.7824
rhand -33.1637 -12.728
rfingers 7.12502
rthumb -6.37222 -42.6122
lclavicle 2.13694e-015 -1.19271e-015
lhumerus -39.7166 -13.951 96.0741
lradius 39.1609
lwrist -22.1259
lhand -26.1332 14.5505
lfingers 7.12502
lthumb 0.417129 44.5298
rfemur -29.6547 -14.4306 22.1466
rtibia 31.0558
rfoot -161.381 6.8553
rtoes -8.71156
lfemur 1.97355 -8.82661 -17.059
ltibia 17.6752
lfoot -26.8702 13.105
ltoes -12.3642
101
root 8.46819 18.1808 2.40878 -177.058 -3.0818 -177.35
lowerback 4.65992 0.168421 -3.18243
upperback 1.5861 0.0303537 1.14822
thorax -0.984511 -0.0181108 2.96685
lowerneck -9.47108 -4.3083 -10.3115
upperneck 10.2131 -7.71643 19.4005
head 5.81753 -3.34956 7.29681
rclavicle 3.62782e-015 -1.19271e-015
rhumerus -45.8832 -24.3649 -76.6488
rradius 35.982
rwrist 42.6303
rhand -33.4102 -12.87
rfingers 7.12502
rthumb -6.61023 -42.7469
lclavicle 3.62782e-015 -1.19271e-015
lhumerus -39.6719 -14.0699 96.3596
lradius 39.5122
lwrist -22.2333
lhand -26.2408 14.5232
lfingers 7.12502
lthumb 0.313196 44.5028
rfemur -29.7525 -14.167 22.1674
rtibia 29.8063
rfoot -161.297 7.25113
rtoes -8.4549
lfemur 2.69942 -8.50265 -17.1525
ltibia 16.7859
lfoot -26.5759 12.9288
ltoes -12.7028
102
root 8.46727 18.1704 2.3032 -176.995 -3.03644 -177.58
lowerback 4.43503 0.171808 -3.14698
upperback 1.70839 0.0396687 0.93905
thorax -0.733993 -0.0201977 2.72998
lowerneck -9.65236 -4.33967 -10.0254
upperneck 10.1069 -7.79091 19.4209
head 5.82098 -3.37274 7.23989
rclavicle 1.93815e-015 9.93923e-015
rhumerus -46.062 -24.2883 -77.0435
rradius 35.932
rwrist 42.2827
rhand -33.4586 -12.6134
rfingers 7.12502
rthumb -6.65692 -42.4887
lclavicle 1.93815e-015 9.93923e-015
lhumerus -39.3751 -14.7983 96.1196
lradius 39.9241
lwrist -21.9658
lhand -26.2228 14.4499
lfingers 7.12502
lthumb 0.330555 44.4293
rfemur -29.8582 -14.0206 22.0576
rtibia 28.7205
rfoot -160.852 7.8112
rtoes -8.32838
lfemur 3.51302 -8.16522 -17.3842
ltibia 15.8117
lfoot -26.2756 12.8101
ltoes -12.9955
103
root 8.46766 18.1599 2.19933 -176.988 -2.92533 -177.713
lowerback 4.34541 0.203126 -3.26506
upperback 1.72856 0.0798889 0.991737
thorax -0.666099 -0.00219233 2.84872
lowerneck -9.56557 -4.30766 -10.2556
upperneck 10.0244 -7.71812 19.5471
head 5.78278 -3.34518 7.33191
rclavicle -4.42296e-015 2.5842e-015
rhumerus -46.4481 -23.9297 -76.8846
rradius 35.9124
rwrist 42.7193
rhand -33.0037 -12.7218
rfingers 7.12502
rthumb -6.2178 -42.6105
lclavicle -4.42296e-015 2.5842e-015
lhumerus -39.1145 -14.7296 96.1962
lradius 40.1338
lwrist -22.1204
lhand -26.2545 14.3595
lfingers 7.12502
lthumb 0.299929 44.339
rfemur -29.9671 -13.5903 21.9859
rtibia 27.8529
rfoot -160.562 8.13643
rtoes -8.80773
lfemur 4.43 -7.82717 -17.5097
ltibia 14.7604
lfoot -25.9685 12.728
ltoes -13.4164
